<svg width="633" height="87" viewBox="0 0 633 87" fill="none" xmlns="http://www.w3.org/2000/svg">
<path d="M72.3736 2.2C74.1736 2.2 75.5736 2.4 76.5736 2.8C77.5736 3.13333 78.3403 3.63333 78.8736 4.29999C79.407 4.89999 79.7403 5.66666 79.8736 6.59999C80.007 7.53333 80.0736 8.59999 80.0736 9.8V26.8C80.0736 30 80.007 33.1 79.8736 36.1C79.807 39.0333 79.5736 41.8 79.1736 44.4C78.8403 46.9333 78.307 49.3 77.5736 51.5C76.907 53.7 75.9403 55.6333 74.6736 57.3C74.007 58.2333 73.2403 58.9333 72.3736 59.4C71.507 59.8 70.607 60.0667 69.6736 60.2C68.7403 60.3333 67.807 60.3333 66.8736 60.2C66.007 60 65.207 59.7333 64.4736 59.4C62.8736 58.6667 61.6736 57.5333 60.8736 56C60.1403 54.4667 60.107 52.7 60.7736 50.7C61.307 48.7667 61.7403 47.0667 62.0736 45.6C62.4736 44.0667 62.7736 42.6 62.9736 41.2H15.0736C13.207 41.2 11.6736 41.0333 10.4736 40.7C9.27363 40.3 8.3403 39.8 7.67363 39.2C7.00697 38.5333 6.5403 37.8 6.27363 37C6.07363 36.1333 5.97363 35.2 5.97363 34.2C5.97363 33.4 6.07363 32.6 6.27363 31.8C6.5403 30.9333 7.00697 30.2 7.67363 29.6C8.3403 28.9333 9.27363 28.4 10.4736 28C11.6736 27.6 13.207 27.4 15.0736 27.4H63.4736V16H15.8736C14.007 16 12.4736 15.8333 11.2736 15.5C10.0736 15.1 9.1403 14.6 8.47363 14C7.80697 13.3333 7.3403 12.6 7.07363 11.8C6.87363 10.9333 6.77363 10 6.77363 9C6.77363 8.2 6.87363 7.4 7.07363 6.59999C7.3403 5.73333 7.80697 5 8.47363 4.4C9.1403 3.73333 10.0736 3.19999 11.2736 2.8C12.4736 2.4 14.007 2.2 15.8736 2.2H72.3736ZM0.073633 77.8C0.073633 76.8 0.173633 75.8667 0.373633 75C0.6403 74.2 1.10697 73.4667 1.77363 72.8C2.4403 72.2 3.37363 71.7 4.57363 71.3C5.77363 70.9667 7.30697 70.8 9.17363 70.8H78.6736C80.5403 70.8 82.0736 70.9667 83.2736 71.3C84.4736 71.7 85.407 72.2 86.0736 72.8C86.7403 73.4667 87.1736 74.2 87.3736 75C87.6403 75.8667 87.7736 76.8 87.7736 77.8C87.7736 78.6 87.6403 79.4 87.3736 80.2C87.1736 81.0667 86.7403 81.8 86.0736 82.4C85.407 83.0667 84.4736 83.6 83.2736 84C82.0736 84.4 80.5403 84.6 78.6736 84.6H9.17363C7.30697 84.6 5.77363 84.4 4.57363 84C3.37363 83.6 2.4403 83.0667 1.77363 82.4C1.10697 81.8 0.6403 81.0667 0.373633 80.2C0.173633 79.4 0.073633 78.6 0.073633 77.8ZM115.593 69.5H131.193C133.06 69.5 134.593 69.7 135.793 70.1C136.993 70.5 137.926 71 138.593 71.6C139.26 72.2667 139.693 73 139.893 73.8C140.16 74.6667 140.293 75.5 140.293 76.3C140.293 77.3 140.16 78.2 139.893 79C139.693 79.8667 139.26 80.6 138.593 81.2C137.926 81.8667 136.993 82.3667 135.793 82.7C134.593 83.1 133.06 83.3 131.193 83.3H107.493C105.626 83.3 104.16 83.1 103.093 82.7C102.026 82.3667 101.193 81.8667 100.593 81.2C100.06 80.6 99.7265 79.8667 99.5932 79C99.4598 78.2 99.3932 77.3 99.3932 76.3V8.7C99.3932 7.7 99.4598 6.76667 99.5932 5.9C99.7265 4.96666 100.06 4.13333 100.593 3.39999C101.193 2.66666 102.026 2.1 103.093 1.7C104.16 1.23333 105.626 0.999995 107.493 0.999995H129.193C131.06 0.999995 132.593 1.2 133.793 1.6C134.993 1.93333 135.926 2.43333 136.593 3.1C137.26 3.7 137.693 4.43333 137.893 5.3C138.16 6.1 138.293 7 138.293 7.99999C138.293 8.8 138.16 9.63333 137.893 10.5C137.693 11.3 137.26 12.0333 136.593 12.7C135.926 13.3 134.993 13.8 133.793 14.2C132.593 14.6 131.06 14.8 129.193 14.8H115.593V69.5ZM154.293 8.7C154.293 5.36666 155.093 3.1 156.693 1.9C158.36 0.633329 160.26 -3.8147e-06 162.393 -3.8147e-06C163.46 -3.8147e-06 164.46 0.13333 165.393 0.399997C166.393 0.666664 167.26 1.13333 167.993 1.8C168.727 2.46666 169.327 3.36666 169.793 4.5C170.26 5.63333 170.493 7.03333 170.493 8.7V32.7H176.793C178.66 32.7 180.193 32.9 181.393 33.3C182.593 33.7 183.527 34.2333 184.193 34.9C184.86 35.5 185.293 36.2333 185.493 37.1C185.76 37.9 185.893 38.7 185.893 39.5C185.893 40.5 185.76 41.4333 185.493 42.3C185.293 43.1 184.86 43.8333 184.193 44.5C183.527 45.1 182.593 45.6 181.393 46C180.193 46.3333 178.66 46.5 176.793 46.5H170.493V77C170.493 78.7333 170.26 80.1667 169.793 81.3C169.327 82.4333 168.727 83.3333 167.993 84C167.26 84.6667 166.393 85.1333 165.393 85.4C164.46 85.6667 163.46 85.8 162.393 85.8C161.327 85.8 160.293 85.6667 159.293 85.4C158.36 85.1333 157.493 84.6667 156.693 84C155.96 83.3333 155.36 82.4333 154.893 81.3C154.493 80.1667 154.293 78.7333 154.293 77V8.7ZM208.313 43.5H228.913C230.779 43.5 232.313 43.6667 233.513 44C234.713 44.3333 235.646 44.8 236.313 45.4C236.979 45.9333 237.413 46.6 237.613 47.4C237.879 48.1333 238.013 48.9 238.013 49.7C238.013 50.7 237.879 51.6 237.613 52.4C237.413 53.2 236.979 53.9 236.313 54.5C235.646 55.0333 234.713 55.4667 233.513 55.8C232.313 56.1333 230.779 56.3 228.913 56.3H200.213C198.346 56.3 196.879 56.1333 195.813 55.8C194.746 55.4667 193.913 55.0333 193.313 54.5C192.779 53.9 192.446 53.2 192.313 52.4C192.179 51.6 192.113 50.7 192.113 49.7V30.4C192.113 29.1333 192.179 28 192.313 27C192.446 25.9333 192.779 25.0667 193.313 24.4C193.913 23.6667 194.746 23.1333 195.813 22.8C196.879 22.4 198.346 22.2 200.213 22.2H218.013V13.9H201.213C199.346 13.9 197.813 13.7333 196.613 13.4C195.413 13.0667 194.479 12.6 193.813 12C193.146 11.4 192.679 10.7333 192.413 10C192.213 9.2 192.113 8.4 192.113 7.6C192.113 6.6 192.213 5.7 192.413 4.9C192.679 4.1 193.146 3.4 193.813 2.8C194.479 2.2 195.413 1.73333 196.613 1.4C197.813 1.06666 199.346 0.899997 201.213 0.899997H226.113C227.979 0.899997 229.446 1.1 230.513 1.49999C231.579 1.83333 232.379 2.33333 232.913 3C233.513 3.6 233.879 4.33333 234.013 5.19999C234.146 6 234.213 6.9 234.213 7.9V26.6C234.213 27.8667 234.146 29.0333 234.013 30.1C233.879 31.1 233.513 31.9667 232.913 32.7C232.379 33.3667 231.579 33.9 230.513 34.3C229.446 34.6333 227.979 34.8 226.113 34.8H208.313V43.5ZM209.913 73.1H259.113C260.979 73.1 262.513 73.3 263.713 73.7C264.913 74.1 265.846 74.6 266.513 75.2C267.179 75.8667 267.613 76.6 267.813 77.4C268.079 78.2667 268.213 79.1 268.213 79.9C268.213 80.9 268.079 81.8 267.813 82.6C267.613 83.4667 267.179 84.2 266.513 84.8C265.846 85.4667 264.913 85.9667 263.713 86.3C262.513 86.7 260.979 86.9 259.113 86.9H201.813C199.946 86.9 198.479 86.7 197.413 86.3C196.346 85.9667 195.513 85.4667 194.913 84.8C194.379 84.2 194.046 83.4667 193.913 82.6C193.779 81.8 193.713 80.9 193.713 79.9V68.9C193.713 65.5667 194.513 63.3 196.113 62.1C197.779 60.8333 199.679 60.2 201.813 60.2C202.879 60.2 203.879 60.3333 204.813 60.6C205.813 60.8667 206.679 61.3333 207.413 62C208.146 62.6667 208.746 63.5667 209.213 64.7C209.679 65.8333 209.913 67.2333 209.913 68.9V73.1ZM249.313 8.7C249.313 5.36666 250.113 3.1 251.713 1.9C253.379 0.633329 255.279 -3.8147e-06 257.413 -3.8147e-06C258.479 -3.8147e-06 259.479 0.13333 260.413 0.399997C261.413 0.666664 262.279 1.13333 263.013 1.8C263.746 2.46666 264.346 3.36666 264.813 4.5C265.279 5.63333 265.513 7.03333 265.513 8.7V21.2H272.813C274.679 21.2 276.213 21.4333 277.413 21.9C278.613 22.3 279.546 22.8333 280.213 23.5C280.879 24.1667 281.313 24.9333 281.513 25.8C281.779 26.6 281.913 27.4 281.913 28.2C281.913 29.2 281.779 30.1333 281.513 31C281.313 31.8667 280.879 32.6333 280.213 33.3C279.546 33.9 278.613 34.4 277.413 34.8C276.213 35.2 274.679 35.4 272.813 35.4H265.513V52.2C265.513 53.9333 265.279 55.3667 264.813 56.5C264.346 57.6333 263.746 58.5333 263.013 59.2C262.279 59.8667 261.413 60.3333 260.413 60.6C259.479 60.8667 258.479 61 257.413 61C256.346 61 255.313 60.8667 254.313 60.6C253.379 60.3333 252.513 59.8667 251.713 59.2C250.979 58.5333 250.379 57.6333 249.913 56.5C249.513 55.3667 249.313 53.9333 249.313 52.2V8.7ZM389.113 51.8C386.113 51.1333 383.213 50.1333 380.413 48.8C377.613 47.4667 374.913 45.9333 372.313 44.2C369.779 42.4 367.413 40.4667 365.213 38.4C363.013 36.3333 361.046 34.2333 359.313 32.1C357.513 34.1667 355.513 36.2 353.313 38.2C351.113 40.2 348.813 42.0667 346.413 43.8C344.013 45.4667 341.546 46.9333 339.013 48.2C336.479 49.4667 333.979 50.4333 331.513 51.1C330.579 51.3667 329.546 51.5667 328.413 51.7C327.346 51.7667 326.279 51.7 325.213 51.5C324.079 51.2333 323.013 50.7333 322.013 50C321.013 49.2667 320.279 48.1333 319.813 46.6C319.079 44.2 319.279 42.1667 320.413 40.5C321.546 38.7667 323.346 37.4333 325.813 36.5C328.679 35.4333 331.613 34.1 334.613 32.5C337.613 30.8333 340.313 29 342.713 27C345.179 25 347.179 22.8333 348.713 20.5C350.313 18.1 351.146 15.6333 351.213 13.1V12V9.2C351.213 7.53333 351.446 6.13333 351.913 5C352.379 3.86666 352.979 2.96666 353.713 2.3C354.513 1.63333 355.413 1.16666 356.413 0.899997C357.413 0.633329 358.446 0.499996 359.513 0.499996C360.579 0.499996 361.613 0.633329 362.613 0.899997C363.613 1.16666 364.479 1.63333 365.213 2.3C366.013 2.96666 366.646 3.86666 367.113 5C367.579 6.13333 367.813 7.53333 367.813 9.2V13.1C367.879 15.6333 368.579 18.1333 369.913 20.6C371.313 23 373.113 25.2667 375.313 27.4C377.513 29.4667 380.013 31.3333 382.813 33C385.613 34.6 388.513 35.8333 391.513 36.7C394.046 37.4333 395.946 38.6 397.213 40.2C398.546 41.8 398.946 43.8333 398.413 46.3C397.813 48.9 396.279 50.6333 393.813 51.5C393.079 51.7667 392.313 51.9333 391.513 52C390.713 52.0667 389.913 52 389.113 51.8ZM315.113 77.8C315.113 76.8 315.213 75.8667 315.413 75C315.679 74.2 316.146 73.4667 316.813 72.8C317.479 72.2 318.413 71.7 319.613 71.3C320.813 70.9667 322.346 70.8 324.213 70.8H393.713C395.579 70.8 397.113 70.9667 398.313 71.3C399.513 71.7 400.446 72.2 401.113 72.8C401.779 73.4667 402.213 74.2 402.413 75C402.679 75.8667 402.813 76.8 402.813 77.8C402.813 78.6 402.679 79.4 402.413 80.2C402.213 81.0667 401.779 81.8 401.113 82.4C400.446 83.0667 399.513 83.6 398.313 84C397.113 84.4 395.579 84.6 393.713 84.6H324.213C322.346 84.6 320.813 84.4 319.613 84C318.413 83.6 317.479 83.0667 316.813 82.4C316.146 81.8 315.679 81.0667 315.413 80.2C315.213 79.4 315.113 78.6 315.113 77.8ZM462.132 56.3V70.8H488.732C490.599 70.8 492.132 70.9667 493.332 71.3C494.532 71.7 495.466 72.2 496.132 72.8C496.799 73.4667 497.232 74.2 497.432 75C497.699 75.8667 497.832 76.8 497.832 77.8C497.832 78.6 497.699 79.4 497.432 80.2C497.232 81.0667 496.799 81.8 496.132 82.4C495.466 83.0667 494.532 83.6 493.332 84C492.132 84.4 490.599 84.6 488.732 84.6H419.232C417.366 84.6 415.832 84.4 414.632 84C413.432 83.6 412.499 83.0667 411.832 82.4C411.166 81.8 410.699 81.0667 410.432 80.2C410.232 79.4 410.132 78.6 410.132 77.8C410.132 76.8 410.232 75.8667 410.432 75C410.699 74.2 411.166 73.4667 411.832 72.8C412.499 72.2 413.432 71.7 414.632 71.3C415.832 70.9667 417.366 70.8 419.232 70.8H445.932V56.3H425.432C423.566 56.3 422.099 56.1 421.032 55.7C419.966 55.3 419.132 54.7667 418.532 54.1C417.999 53.3667 417.666 52.5667 417.532 51.7C417.399 50.7667 417.332 49.8 417.332 48.8V8.89999C417.332 7.23333 417.532 5.9 417.932 4.9C418.399 3.83333 418.999 3.03333 419.732 2.49999C420.532 1.9 421.399 1.5 422.332 1.3C423.332 1.1 424.366 0.999995 425.432 0.999995H482.132C483.799 0.999995 485.132 1.2 486.132 1.6C487.132 2 487.899 2.53333 488.432 3.2C488.966 3.86666 489.299 4.6 489.432 5.4C489.632 6.2 489.732 7.03333 489.732 7.9C489.732 8.63333 489.632 9.4 489.432 10.2C489.299 10.9333 488.966 11.6667 488.432 12.4C487.899 13.0667 487.132 13.6333 486.132 14.1C485.132 14.5 483.799 14.7 482.132 14.7H433.532V21.7H482.132C483.799 21.7 485.132 21.9 486.132 22.3C487.132 22.7 487.899 23.2333 488.432 23.9C488.966 24.5667 489.299 25.3 489.432 26.1C489.632 26.9 489.732 27.7333 489.732 28.6C489.732 29.3333 489.632 30.1 489.432 30.9C489.299 31.6333 488.966 32.3667 488.432 33.1C487.899 33.7667 487.132 34.3333 486.132 34.8C485.132 35.2 483.799 35.4 482.132 35.4H433.532V42.6H483.132C484.799 42.6 486.132 42.8333 487.132 43.3C488.132 43.7 488.899 44.2667 489.432 45C489.966 45.6667 490.299 46.4 490.432 47.2C490.632 48 490.732 48.7333 490.732 49.4C490.732 50.2667 490.632 51.1333 490.432 52C490.299 52.8 489.966 53.5333 489.432 54.2C488.899 54.8 488.132 55.3 487.132 55.7C486.132 56.1 484.799 56.3 483.132 56.3H462.132ZM615.807 46.4H604.207C602.34 46.4 600.84 46.2333 599.707 45.9C598.574 45.5 597.674 44.9667 597.007 44.3C596.407 43.6333 596.007 42.9 595.807 42.1C595.607 41.2333 595.507 40.3 595.507 39.3C595.507 38.5 595.607 37.7 595.807 36.9C596.007 36.0333 596.407 35.2667 597.007 34.6C597.674 33.9333 598.574 33.4 599.707 33C600.84 32.6 602.34 32.4 604.207 32.4H615.807V8.7C615.807 5.36666 616.607 3.1 618.207 1.9C619.874 0.633329 621.774 -3.8147e-06 623.907 -3.8147e-06C624.974 -3.8147e-06 625.974 0.13333 626.907 0.399997C627.907 0.666664 628.774 1.13333 629.507 1.8C630.24 2.46666 630.84 3.36666 631.307 4.5C631.774 5.63333 632.007 7.03333 632.007 8.7V77C632.007 78.7333 631.774 80.1667 631.307 81.3C630.84 82.4333 630.24 83.3333 629.507 84C628.774 84.6667 627.907 85.1333 626.907 85.4C625.974 85.6667 624.974 85.8 623.907 85.8C622.84 85.8 621.807 85.6667 620.807 85.4C619.874 85.1333 619.007 84.6667 618.207 84C617.474 83.3333 616.874 82.4333 616.407 81.3C616.007 80.1667 615.807 78.7333 615.807 77V46.4Z" fill="black"/>
<path d="M597.5 43.5C597.5 61.5042 583.746 75.5 567.5 75.5C551.254 75.5 537.5 61.5042 537.5 43.5C537.5 25.4958 551.254 11.5 567.5 11.5C583.746 11.5 597.5 25.4958 597.5 43.5Z" fill="#29B473" stroke="black" stroke-width="13"/>
<path d="M569.5 43.5C569.5 61.5042 555.746 75.5 539.5 75.5C523.254 75.5 509.5 61.5042 509.5 43.5C509.5 25.4958 523.254 11.5 539.5 11.5C555.746 11.5 569.5 25.4958 569.5 43.5Z" fill="#29B473" stroke="black" stroke-width="13"/>
<path d="M590 43.5C590 57.5833 579.926 69 567.5 69C555.074 69 545 57.5833 545 43.5C545 29.4167 555.074 18 567.5 18C579.926 18 590 29.4167 590 43.5Z" fill="#29B473"/>
</svg>
